<?xml version="1.0" encoding="utf-8"?>
<!-- Generator: Adobe Illustrator 25.2.3, SVG Export Plug-In . SVG Version: 6.00 Build 0)  -->
<svg version="1.1" id="Layer_1" xmlns="http://www.w3.org/2000/svg" xmlns:xlink="http://www.w3.org/1999/xlink" x="0px" y="0px"
	 viewBox="0 0 278.1 279.8" style="enable-background:new 0 0 278.1 279.8;" xml:space="preserve">
<style type="text/css">
	.st0{fill:#FFFFFF;}
	.st1{fill:none;stroke:#FFFFFF;stroke-miterlimit:10;}
</style>
<g>
	<path class="st0" d="M164.3,93.7c-4.6,0-8.4-3.8-8.4-8.4V72.7h-33.6v12.6c0,4.6-3.8,8.4-8.4,8.4s-8.4-3.8-8.4-8.4V72.7
		c0-9.3,7.5-16.8,16.8-16.8h33.6c9.3,0,16.8,7.5,16.8,16.8v12.6C172.7,89.9,168.9,93.7,164.3,93.7z"/>
	<path class="st0" d="M145,168.3c-1.5,0.6-3.7,1-6,1s-4.5-0.4-6.5-1.2l-94.4-31.4v64.1c0,12.8,10.3,23.1,23.1,23.1h155.5
		c12.8,0,23.1-10.3,23.1-23.1v-64.1L145,168.3z"/>
	<path class="st0" d="M239.9,104.2v19.2l-98.8,32.9c-0.7,0.3-1.3,0.3-2,0.3c-0.7,0-1.3-0.1-2-0.3l-98.8-32.9v-19.2
		c0-12.8,10.3-23.1,23.1-23.1h155.5C229.6,81.1,239.9,91.4,239.9,104.2z"/>
</g>
</svg>
