<?xml version="1.0" encoding="utf-8"?>
<!-- Generator: Adobe Illustrator 25.2.3, SVG Export Plug-In . SVG Version: 6.00 Build 0)  -->
<svg version="1.1" id="Layer_1" xmlns="http://www.w3.org/2000/svg" xmlns:xlink="http://www.w3.org/1999/xlink" x="0px" y="0px"
	 viewBox="0 0 278.1 279.8" style="enable-background:new 0 0 278.1 279.8;" xml:space="preserve">
<style type="text/css">
	.st0{fill:#FFFFFF;}
	.st1{fill:none;stroke:#FFFFFF;stroke-miterlimit:10;}
</style>
<g>
	<g id="Cancel">
		<path class="st0" d="M139.1,50.2c-49.5,0-89.7,40.1-89.7,89.7c0,49.5,40.1,89.7,89.7,89.7c49.5,0,89.7-40.1,89.7-89.7
			S188.6,50.2,139.1,50.2z M139.1,218.4c-43.3,0-78.4-35.1-78.4-78.4s35.1-78.4,78.4-78.4s78.4,35.1,78.4,78.4
			S182.4,218.4,139.1,218.4z"/>
		<path class="st0" d="M176.8,169.4l-29.5-29.5l29.4-29.1c2.2-2.2,2.2-5.7,0-7.9c-2.2-2.2-5.8-2.2-8,0L139.3,132l-29.7-29.8
			c-2.2-2.2-5.8-2.2-8,0c-2.2,2.2-2.2,5.8,0,8l29.7,29.7l-29.9,29.6c-2.2,2.2-2.2,5.7,0,7.9c2.2,2.2,5.8,2.2,8,0l29.8-29.6
			l29.6,29.6c2.2,2.2,5.8,2.2,8,0C179,175.2,179,171.7,176.8,169.4z"/>
	</g>
</g>
</svg>
