<?xml version="1.0" encoding="utf-8"?>
<!-- Generator: Adobe Illustrator 25.2.3, SVG Export Plug-In . SVG Version: 6.00 Build 0)  -->
<svg version="1.1" id="Layer_1" xmlns="http://www.w3.org/2000/svg" xmlns:xlink="http://www.w3.org/1999/xlink" x="0px" y="0px"
	 viewBox="0 0 278.1 279.8" style="enable-background:new 0 0 278.1 279.8;" xml:space="preserve">
<style type="text/css">
	.st0{fill:#FFFFFF;}
	.st1{fill:none;stroke:#FFFFFF;stroke-miterlimit:10;}
</style>
<g>
	<path class="st0" d="M186.1,221.8h-29.5l-9.5-47.6h-16l-9.5,47.6H92.1c-3.6,0-6.6,2.9-6.6,6.6c0,3.6,2.9,6.6,6.6,6.6h94
		c3.6,0,6.6-2.9,6.6-6.6S189.7,221.8,186.1,221.8z"/>
	<path class="st0" d="M87.5,122.6v-6.7c-24.1-1.6-24.1-16.5-24.1-28.6c0-6,0-20.3,0-28.7h24.1V45.5H56.8c-3.6,0-6.6,2.9-6.6,6.5
		c0,0,0,26.4,0,35.3c0,6.7,0,16.9,5.4,25.7c6,9.8,16.8,15.2,32.2,16C87.6,126.9,87.5,124.8,87.5,122.6z"/>
	<path class="st0" d="M227.9,52.1c0-3.6-2.9-6.5-6.6-6.5h-30.7v13.1h24.1c0,8.4,0,22.7,0,28.7c0,12.1-0.1,26.9-24.1,28.6v6.7
		c0,2.2-0.2,4.3-0.4,6.4c15.4-0.8,26.2-6.2,32.2-16c5.4-8.8,5.4-19,5.4-25.7C227.9,78.5,227.9,52.1,227.9,52.1z"/>
	<path class="st0" d="M131.1,106l-1.2,7.8l7.1-3.5c0.6-0.3,1.4-0.5,2.1-0.5c0.7,0,1.4,0.2,2.1,0.5l7.1,3.5L147,106
		c-0.2-1.4,0.3-2.9,1.3-3.9l5.5-5.6l-7.8-1.3c-1.4-0.2-2.7-1.1-3.3-2.4l-3.6-7l-3.6,7c-0.7,1.3-1.9,2.2-3.3,2.4l-7.8,1.3l5.5,5.6
		C130.9,103.1,131.4,104.6,131.1,106z"/>
	<path class="st0" d="M139.1,165c23.4,0,42.4-19,42.4-42.4V44.9H96.7v77.7C96.7,146,115.7,165,139.1,165z M110.5,92
		c0.5-1.6,1.9-2.8,3.6-3.1l14.3-2.4l6.6-12.8c0.8-1.5,2.4-2.5,4.1-2.5s3.3,1,4.1,2.5l6.6,12.8l14.3,2.4c1.7,0.3,3.1,1.5,3.6,3.1
		c0.5,1.6,0.1,3.4-1.1,4.6l-10.2,10.3l2.2,14.3c0.3,1.7-0.5,3.4-1.8,4.4c-0.8,0.6-1.7,0.9-2.7,0.9c-0.7,0-1.4-0.2-2.1-0.5l-12.9-6.5
		l-12.9,6.5c-1.5,0.8-3.4,0.6-4.8-0.4c-1.4-1-2.1-2.7-1.8-4.4l2.2-14.3l-10.2-10.3C110.4,95.4,109.9,93.6,110.5,92z"/>
</g>
</svg>
