<?xml version="1.0" encoding="utf-8"?>
<!-- Generator: Adobe Illustrator 25.2.3, SVG Export Plug-In . SVG Version: 6.00 Build 0)  -->
<svg version="1.1" id="Layer_1" xmlns="http://www.w3.org/2000/svg" xmlns:xlink="http://www.w3.org/1999/xlink" x="0px" y="0px"
	 viewBox="0 0 278.1 279.8" style="enable-background:new 0 0 278.1 279.8;" xml:space="preserve">
<style type="text/css">
	.st0{fill:#FFFFFF;}
	.st1{fill:none;stroke:#FFFFFF;stroke-miterlimit:10;}
</style>
<g>
	<path class="st0" d="M89.5,84.6l74.2-20.2l-3.9-7.9c-2.6-5.2-8.8-7.3-14-4.7L79.4,84.6H89.5z"/>
	<path class="st0" d="M186.7,64.9c-0.9,0-1.8,0.1-2.8,0.4l-17.4,4.8l-53.2,14.5h60.4h26.3l-3.3-12C195.5,68,191.3,64.9,186.7,64.9z"
		/>
	<path class="st0" d="M210.9,91.9h-2.4h-3.2h-3.2h-24.7H86.5H74.6h-10h-1.9h-6.2c-3.3,0-6.2,1.5-8.2,3.9c-0.9,1.1-1.5,2.4-1.9,3.8
		c-0.2,0.9-0.4,1.8-0.4,2.7v1.3v11.9v103.2c0,5.8,4.7,10.4,10.4,10.4h154.4c5.8,0,10.4-4.7,10.4-10.4v-29.2h-62
		c-9.8,0-17.8-8-17.8-17.8v-9.6V159v-3.2v-7.2c0-4.8,1.9-9.2,5-12.4c2.8-2.8,6.5-4.8,10.6-5.2c0.7-0.1,1.4-0.1,2.1-0.1h53.3h3.2h3.2
		h2.2v-28.5C221.4,96.6,216.7,91.9,210.9,91.9z"/>
	<path class="st0" d="M228.7,140.9c-1-1-2.3-1.7-3.7-2.2c-1.1-0.4-2.2-0.6-3.4-0.6h-0.3h-0.2h-3.2h-11.7h-46.9
		c-5.8,0-10.4,4.7-10.4,10.4v5.2v3.2v3.2v11.6c0,5.8,4.7,10.4,10.4,10.4h62h0.3c1.2,0,2.3-0.2,3.4-0.6c1.4-0.5,2.6-1.2,3.7-2.2
		c2.1-1.9,3.4-4.7,3.4-7.7v-23.3C232.1,145.5,230.8,142.8,228.7,140.9z M181.2,162.3c0,2.9-2.3,5.2-5.2,5.2h-3.5
		c-2.9,0-5.2-2.3-5.2-5.2v-3.5c0-1.7,0.8-3.2,2-4.1c0.9-0.7,2-1.1,3.2-1.1h0.9h2.6c2.9,0,5.2,2.3,5.2,5.2V162.3L181.2,162.3z"/>
</g>
</svg>
