<?xml version="1.0" encoding="utf-8"?>
<!-- Generator: Adobe Illustrator 25.2.3, SVG Export Plug-In . SVG Version: 6.00 Build 0)  -->
<svg version="1.1" id="Layer_1" xmlns="http://www.w3.org/2000/svg" xmlns:xlink="http://www.w3.org/1999/xlink" x="0px" y="0px"
	 viewBox="0 0 278.1 279.8" style="enable-background:new 0 0 278.1 279.8;" xml:space="preserve">
<style type="text/css">
	.st0{fill:#FFFFFF;}
	.st1{fill:none;stroke:#FFFFFF;stroke-miterlimit:10;}
</style>
<g>
	<path id="XMLID_346_" class="st0" d="M148.1,186.9h-42.5v-10.6h42.2c1.9-18.5,16.9-33.2,35.6-34.6V51H49.2v177.8h134.1v-9.9
		C165.5,217.6,151,204.2,148.1,186.9z M83.8,148.2c3,0,5.1,2.4,5.3,5.3c0.1,2.9-2.5,5.3-5.3,5.3c-3,0-5.1-2.4-5.3-5.3
		C78.4,150.6,81,148.2,83.8,148.2z M78.5,124.2c-0.1-2.9,2.5-5.3,5.3-5.3c3,0,5.1,2.4,5.3,5.3c0.1,2.9-2.5,5.3-5.3,5.3
		C80.8,129.4,78.6,127,78.5,124.2z M83.8,177.5c3,0,5.1,2.4,5.3,5.3c0.1,2.9-2.5,5.3-5.3,5.3c-3,0-5.1-2.4-5.3-5.3
		C78.4,179.9,81,177.5,83.8,177.5z M83.8,100.1c-3,0-5.1-2.4-5.3-5.3c-0.1-2.9,2.5-5.3,5.3-5.3c3,0,5.1,2.4,5.3,5.3
		C89.2,97.7,86.5,100.1,83.8,100.1z M152.9,158.2h-47.4v-10.6h47.4V158.2z M152.9,129.4h-47.4v-10.6h47.4V129.4z M152.9,100.7h-47.4
		V90.2h47.4V100.7z"/>
	<path id="XMLID_372_" class="st0" d="M164.4,177.3l6.6-8.2l15.8,12.7l21.9-18.3c-5.1-6.8-13.3-11.2-22.5-11.2
		c-15.5,0-28.2,12.6-28.2,28.2c0,15.5,12.6,28.2,28.2,28.2c15.5,0,28.2-12.6,28.2-28.2c0-2.5-0.3-4.9-0.9-7.1l-26.5,22.2
		L164.4,177.3z"/>
	<path id="XMLID_374_" class="st0" d="M208.7,163.4c2.2,2.9,3.8,6.2,4.7,9.8l15.5-12.9l-6.8-8.1L208.7,163.4z"/>
</g>
</svg>
